<?xml version="1.0" standalone="no"?><!DOCTYPE svg PUBLIC "-//W3C//DTD SVG 1.1//EN" "http://www.w3.org/Graphics/SVG/1.1/DTD/svg11.dtd"><svg t="1536630203613" class="icon" style="" viewBox="0 0 1146 1024" version="1.1" xmlns="http://www.w3.org/2000/svg" p-id="8230" xmlns:xlink="http://www.w3.org/1999/xlink" width="17.90625" height="16"><defs><style type="text/css"></style></defs><path d="M798.96576 20.48C979.39456 20.48 1126.4 174.2848 1126.4 362.0864c0 79.872-24.04352 143.85152-71.76192 218.89024a1622.4256 1622.4256 0 0 1-20.80768 31.70304c-8.68352 12.98432-18.35008 26.2144-28.95872 39.7312-39.23968 49.84832-90.80832 102.31808-151.9616 156.34432a2394.112 2394.112 0 0 1-152.94464 123.65824 3160.10496 3160.10496 0 0 1-75.61216 54.55872c-15.5648 10.81344-33.05472 16.54784-51.24096 16.54784-19.00544 0-36.57728-5.57056-51.8144-16.9984 7.04512 5.3248-44.11392-30.96576-74.79296-53.82144a2356.0192 2356.0192 0 0 1-152.53504-123.20768C231.34208 754.11456 178.74944 700.33408 139.264 649.216a611.9424 611.9424 0 0 1-26.2144-36.53632c-10.4448-15.64672-14.99136-22.528-20.84864-31.70304C44.52352 505.93792 20.48 441.91744 20.48 362.0864 20.48 173.75232 167.40352 20.48 348.5696 20.48c88.4736 0 163.55328 37.2736 225.11616 107.52C634.63424 57.99936 710.32832 20.48 798.96576 20.48z m0 40.96c-83.1488 0-152.7808 38.21568-208.93696 111.28832l-16.1792 21.01248-16.26112-20.8896C500.5312 99.36896 431.5136 61.44 348.5696 61.44 190.464 61.44 61.44 195.9936 61.44 362.0864c0 70.73792 21.42208 127.83616 65.37216 196.89472 5.65248 8.88832 10.07616 15.5648 20.35712 31.04768 7.3728 11.10016 15.5648 22.528 24.576 34.16064 37.6832 48.7424 88.4736 100.84352 149.34016 154.624a2315.8784 2315.8784 0 0 0 149.87264 121.0368 3189.22752 3189.22752 0 0 0 74.87488 53.90336c7.9872 5.98016 16.91648 8.8064 27.27936 8.8064 9.6256 0 19.00544-3.072 27.27936-8.8064-6.88128 5.12 44.76928-31.5392 75.07968-54.14912a2354.01216 2354.01216 0 0 0 150.3232-121.52832c59.392-52.51072 109.3632-103.34208 146.88256-151.01952 9.99424-12.6976 19.00544-25.06752 27.0336-37.10976 10.28096-15.40096 14.7456-22.1184 20.35712-30.96576 43.95008-69.05856 65.37216-126.1568 65.37216-196.89472 0-165.56032-129.10592-300.6464-286.47424-300.6464z" fill="#ffffff" p-id="8231"></path><path d="M593.92 316.0064a20.48 20.48 0 1 0-40.96 0V552.96h266.93632a20.48 20.48 0 1 0 0-40.96H593.92V316.0064z" fill="#ffffff" p-id="8232"></path><path d="M573.44 532.48m-40.96 0a40.96 40.96 0 1 0 81.92 0 40.96 40.96 0 1 0-81.92 0Z" fill="#ffffff" p-id="8233"></path></svg>