<?xml version="1.0" standalone="no"?><!DOCTYPE svg PUBLIC "-//W3C//DTD SVG 1.1//EN" "http://www.w3.org/Graphics/SVG/1.1/DTD/svg11.dtd"><svg t="1536570774675" class="icon" style="" viewBox="0 0 1024 1024" version="1.1" xmlns="http://www.w3.org/2000/svg" p-id="2439" xmlns:xlink="http://www.w3.org/1999/xlink" width="16" height="16"><defs><style type="text/css"></style></defs><path d="M192 256v576h576v-576h-576z m0-64h576c35.2 0 64 28.8 64 64v576c0 35.2-28.8 64-64 64h-576c-35.2 0-64-28.8-64-64v-576c0-35.2 28.8-64 64-64z m128 192h320c19.2 0 32 12.8 32 32s-12.8 32-32 32h-320c-19.2 0-32-12.8-32-32s12.8-32 32-32z m0 128h320c19.2 0 32 12.8 32 32s-12.8 32-32 32h-320c-19.2 0-32-12.8-32-32s12.8-32 32-32z m0 128h320c19.2 0 32 12.8 32 32s-12.8 32-32 32h-320c-19.2 0-32-12.8-32-32s12.8-32 32-32z m32-512c-19.2 0-32-12.8-32-32s12.8-32 32-32h512c54.4 0 96 41.6 96 96v512c0 19.2-12.8 32-32 32s-32-12.8-32-32v-512c0-19.2-12.8-32-32-32h-512z" p-id="2440" fill="#ffffff"></path></svg>