<?xml version="1.0" standalone="no"?><!DOCTYPE svg PUBLIC "-//W3C//DTD SVG 1.1//EN" "http://www.w3.org/Graphics/SVG/1.1/DTD/svg11.dtd"><svg t="1536645380721" class="icon" style="" viewBox="0 0 1024 1024" version="1.1" xmlns="http://www.w3.org/2000/svg" p-id="12457" xmlns:xlink="http://www.w3.org/1999/xlink" width="16" height="16"><defs><style type="text/css"></style></defs><path d="M1023.9 783.1s-1.3-9.1-3.1-10.9c-1.8-1.8-12.4-3-12.4-3h-26.8c-0.4-8-1.5-15.8-3.3-23.3l28.1-10.5s8.9-3.5 10.3-6.9c1.2-2.2-1.1-11.4-1.1-11.4l-11.4-26.4s-4.8-8-7.2-9.1c-2.4-1.1-12.7 1.5-12.7 1.5l-9.6 3.5V207.3l29.1-25.6s15.2-45.7-31.7-86.2C917.5 48.4 871.4 68 871.4 68l-41 40.1H0v783.1h690.6l-1.9 2.2s-5.8 7.1-5.3 10.8c0.1 2.5 7 9.4 7 9.4l24 17.7s8.4 4.7 11.1 4.6c2.7-0.2 10.3-7.1 10.3-7.1l17.8-20.7c5.9 2.7 12 5.1 18.3 7.2l-0.9 28.8s-0.1 8.9 2.7 11.6c1.7 1.9 11.7 3.6 11.7 3.6l30.6 0.8s9.8-0.9 11.8-2.5 3.7-11.4 3.7-11.4l0.9-23c8.8-0.4 17.4-1.6 25.8-3.3l8.8 24.3s3.2 8.4 6.8 10c2.3 1.2 12.3-0.4 12.3-0.4l29-9.1s8.9-4 10.2-6.2c1.3-2.2-0.8-11.9-0.8-11.9L914 897.1c3-1.9 5.9-3.9 8.7-6h16.7l13 10.4s7.4 5.7 11.4 5.3c2.7 0 10.4-6.2 10.4-6.2l20-21.6s5.4-7.6 5.3-10.1c-0.1-2.5-7.2-9.8-7.2-9.8L975 845.2v-19.7l33.5-0.1s9.6-0.2 12.4-2.9c2-1.6 3.5-11 3.5-11l-0.5-28.4zM387.4 671.2l-37.7-32.5 37.7 32.5z m501.9 105.3c0 33.6-29.3 60.9-65.5 60.9s-65.5-27.3-65.5-60.9 29.3-60.9 65.5-60.9c36.2 0.1 65.5 27.3 65.5 60.9z m-207.5-64.1c-3.6 6.9-6.6 14-9 21.4l-10.9 0.1v-34.4h4.7l15.2 12.9z m-50.1-41.2H448.1l183.6-161.7v161.7z m30.1 119.1h4.9c0.5 5.2 1.3 10.4 2.4 15.5l-7.3 3.2v-18.7z m30.6 67.6c1.3 1.8 2.7 3.6 4 5.3h-16.3l12.3-5.3z m245.4-238.2s-8.2-5.1-10.9-5c-2.7 0.1-10.6 6.7-10.6 6.7L894.1 645c-5.7-2.6-11.5-4.9-17.5-6.9l2.5-31s0.6-8.9-2.1-11.7c-1.6-2-11.5-4.1-11.5-4.1l-30.5-2.1s-9.8 0.5-11.9 2c-2.1 1.5-4.2 11.3-4.2 11.3l-2.3 27.3c-7.8 0.3-15.4 1.2-22.8 2.5l-11.6-26.8s-5.1-8.7-7.6-9.6c-2.5-0.9-12 1.4-12 1.4L734 607.9s-8.8 4.7-9.7 7.1c-1.7 3.4 1.7 11.7 1.7 11.7l11.5 27c-6.7 4.1-13.1 8.6-19.1 13.6l-21-17.5s-8.7-5.7-11.4-5.5c-2.7 0.2-10.1 6.2-10.1 6.2l-14.1 14.4V484.2h276.8v136.1l-0.8-0.6z m0.8-355v191.1h-246l216.9-191.1h29.1z m-268.3 0l-8.5 8.3v-8.3h8.5z m-333.4 0h294.8v37.7l-7.2 7-149.6 146.4h-138V264.7z m108.9 219.5L336.9 590.7V484.2h108.9zM39.1 264.7h267.7v191.1H39.1V264.7z m0 219.5h267.7v163.9l-11 23.1H39.1v-187z m0 379V699.6h243.1l-22.5 47.1 47.1-16.5v133H39.1z m297.8 0V719.6l57.3-20h237.5v35.1c-2.8 0.4-6.2 1.1-7.6 2.6-2 1.7-3.4 11-3.4 11l0.4 28.5s1.4 9.1 3.2 10.9c1 1 4.4 1.7 7.5 2.2v34.9c-0.2 0.3-0.3 0.5-0.4 0.8-0.5 1.1-0.1 3.6 0.4 5.9v31.7H336.9z" p-id="12458" fill="#ffffff"></path></svg>