<?xml version="1.0" standalone="no"?><!DOCTYPE svg PUBLIC "-//W3C//DTD SVG 1.1//EN" "http://www.w3.org/Graphics/SVG/1.1/DTD/svg11.dtd"><svg t="1537411214083" class="icon" style="" viewBox="0 0 1024 1024" version="1.1" xmlns="http://www.w3.org/2000/svg" p-id="3448" xmlns:xlink="http://www.w3.org/1999/xlink" width="16" height="16"><defs><style type="text/css"></style></defs><path d="M512 958.9C265.3 958.9 65.1 758.7 65.1 512S265.3 65.1 512 65.1c247.6 0 446.9 199.3 446.9 446.9 0 246.7-200.2 446.9-446.9 446.9z m79.5-276.2s17 9.8 87.6 38.4c67.9 28.6 49.2 8 101.9 34 58.1-64.3 93.8-149.3 93.8-243.1 0-81.1-27-155.9-72.2-216.3l-155 152.5c7.1 11.1 1.7 41.2 1 52.2-0.9 15.2-6.3 38.4-23.2 34-8 62.6-34.9 82.2-34.9 82.2l1 66.1zM431 661.4l-44.7 44c34.8-15.3 44.4-20.9 44.4-20.9l0.3-23.1zM149.2 512c0 81.4 26.9 156.6 70.8 217.7l180.7-177.8c-1.1-5.5-2.3-11.2-3.1-17.5-17 5.4-22.3-18.8-23.2-34 0-14.3-9.8-60.8 10.7-56.3-3.6-30.4-7.1-59-5.4-73.3 5.4-51.8 55.4-105.5 132.3-109.9 63.8 3.2 100.3 31 118.2 65.2l102.9-101.2c-61.3-47.3-137.8-75.7-221.1-75.7-200.2 0-362.8 162.6-362.8 362.8z" p-id="3449" fill="#ffffff"></path></svg>