<?xml version="1.0" standalone="no"?><!DOCTYPE svg PUBLIC "-//W3C//DTD SVG 1.1//EN" "http://www.w3.org/Graphics/SVG/1.1/DTD/svg11.dtd"><svg t="1536645791637" class="icon" style="" viewBox="0 0 1024 1024" version="1.1" xmlns="http://www.w3.org/2000/svg" p-id="18692" xmlns:xlink="http://www.w3.org/1999/xlink" width="16" height="16"><defs><style type="text/css"></style></defs><path d="M396.6321 355.1314c-57.2539 0-103.6575 45.8885-103.6575 102.4614 0 56.5883 46.4036 102.4584 103.6575 102.4584 57.257 0 103.6595-45.8701 103.6595-102.4584C500.2926 401.0199 453.889 355.1314 396.6321 355.1314zM818.9553 221.3652l-447.488-94.8541c-13.0488 0.5663-24.9334 2.8303-34.4187 5.3268l-105.4218 64.5612c-17.0445 5.9249-25.9328 18.5252-25.9328 18.5252v550.048768c0 0 5.5265 38.7953 36.8835 61.9141l311.6411 67.5072h78.99136c59.3859-28.8102 183.5151-97.065 183.5151-97.065V225.709056h-2.893824L818.9553 221.3652zM619.7617 678.1573c-17.0424 16.8448-44.6689 16.8448-61.7155 0l-46.3043-45.7544c-11.3838-11.2671-14.9801-27.1821-11.1165-41.5273l-24.3005-24.0169c-22.4358 16.0102-49.8975 25.5478-79.6928 25.5478-75.3295 0-136.3784-60.3515-136.3784-134.8147 0-74.4489 61.0488-134.8157 136.3784-134.8157 75.3306 0 136.4173 60.3668 136.4173 134.8157 0 29.442-9.6553 56.5883-25.8662 78.7599l24.3005 24.0148c14.5132-3.7949 30.5879-0.2468 42.0065 11.0213l46.2705 45.7523C636.8031 633.984 636.8031 661.2961 619.7617 678.1573zM762.1652 775.7548l-65.4418 37.8511V299.72582400000005l-407.7097-85.9484 69.1732-37.4006 403.9782 83.7683V775.7547519999999z" p-id="18693" fill="#ffffff"></path></svg>