<?xml version="1.0" standalone="no"?><!DOCTYPE svg PUBLIC "-//W3C//DTD SVG 1.1//EN" "http://www.w3.org/Graphics/SVG/1.1/DTD/svg11.dtd"><svg t="1536645467253" class="icon" style="" viewBox="0 0 1093 1024" version="1.1" xmlns="http://www.w3.org/2000/svg" p-id="13803" xmlns:xlink="http://www.w3.org/1999/xlink" width="17.078125" height="16"><defs><style type="text/css"></style></defs><path d="M1067.008 649.892881a102.4 102.4 0 0 0-86.970576-48.336271c-7.862237 0-15.811254 0.902508-23.621424 2.655458l-4.269559 0.954576-256.746305 147.525424-2.794305-3.731526a81.191051 81.191051 0 0 0-19.490712-18.449356l-6.69939-4.529898-322.64678-118.367457a72.565153 72.565153 0 0 0-36.030915-4.165424l-136.296136 18.744407a40.02278 40.02278 0 0 0-34.590373 39.38061v244.805423a39.970712 39.970712 0 0 0 40.092204 39.745085h97.418847l330.994983 65.605424a50.957017 50.957017 0 0 0 34.694509-5.501831L1055.986983 773.553898l4.043932-5.03322c27.873627-34.538305 30.615864-81.104271 6.977085-118.627797z m-48.59661 78.570305l-0.728949 1.11078L614.052881 955.339932l-333.997559-66.178169h-85.738305v-212.61017l121.370034-16.661695a15.27322 15.27322 0 0 1 7.25478 0.850441l316.867254 116.232678 0.885152 0.590102c8.539119 5.779525 11.246644 14.89139 7.237424 24.367728-3.332339 7.844881-9.788746 12.357424-17.720407 12.357424-0.781017 0-1.562034-0.052068-2.377762-0.121491l-0.64217-0.069424-175.832949-63.054102-19.473356 53.595119 180.102508 64.581424 2.082712 0.416542c5.415051 1.093424 10.934237 1.631458 16.436068 1.648814 31.067119 0 58.055593-18.119593 70.413017-47.294916 1.214915-2.846373 2.256271-5.762169 3.141424-8.730034l0.607457-2.030644 268.37478-154.207457 1.041356-0.138848c2.082712-0.260339 4.165424-0.399186 6.248136-0.399186 22.580068 0 34.72922 16.522847 37.922711 21.590779 3.644746 5.779525 14.405424 26.346305 0.156204 48.388339zM48.075932 622.765559H17.408A17.32122 17.32122 0 0 0 0 639.947932v300.813017c0 9.493695 7.810169 17.217085 17.408 17.217085H48.075932a17.32122 17.32122 0 0 0 17.408-17.217085V639.965288a17.32122 17.32122 0 0 0-17.408-17.217085z m351.978305-278.44122l0.156204 48.579254 95.405559-0.347118v78.014915h46.444475V392.417627l85.703593-0.312407-0.17356-48.561898-85.530033 0.295051v-29.036475l90.597966-0.312406-0.138848-48.579255-69.892339 0.242983 71.575865-74.856135-32.837424-34.34739-82.56217 86.328407-82.544813-86.345763-32.837424 34.34739 71.853559 75.151186-70.308881 0.260339 0.138848 48.561899 90.511186-0.295051v29.036474l-95.561763 0.347119z m117.048407 257.232271c165.349966 0 299.389831-134.664678 299.389831-300.778305C816.492475 134.664678 682.45261 0 517.102644 0c-165.349966 0-299.389831 134.664678-299.38983 300.778305 0 166.113627 134.039864 300.778305 299.38983 300.778305z m0-549.24583c136.591186 0 247.322034 111.251525 247.322034 248.467525 0 137.233356-110.730847 248.467525-247.322034 248.467526s-247.322034-111.251525-247.322034-248.467526c0-137.233356 110.730847-248.467525 247.322034-248.467525z" fill="#ffffff" p-id="13804"></path></svg>