<?xml version="1.0" standalone="no"?><!DOCTYPE svg PUBLIC "-//W3C//DTD SVG 1.1//EN" "http://www.w3.org/Graphics/SVG/1.1/DTD/svg11.dtd"><svg t="1553830454213" class="icon" style="" viewBox="0 0 1024 1024" version="1.1" xmlns="http://www.w3.org/2000/svg" p-id="2591" xmlns:xlink="http://www.w3.org/1999/xlink" width="16" height="16"><defs><style type="text/css"></style></defs><path d="M896 850.746667V725.333333a32 32 0 0 1 64 0v202.666667a32 32 0 0 1-32 32h-202.666667a32 32 0 0 1 0-64h125.413334l-180.042667-180.037333a32 32 0 0 1 45.258667-45.258667L896 850.746667z m-768 0l180.037333-180.042667a32 32 0 0 1 45.258667 45.258667L173.253333 896H298.666667a32 32 0 0 1 0 64H96a32 32 0 0 1-32-32v-202.666667a32 32 0 0 1 64 0v125.413334z m768-677.493334l-180.037333 185.376a32 32 0 0 1-45.258667-45.258666L850.746667 128H725.333333a32 32 0 0 1 0-64h202.666667a32 32 0 0 1 32 32v202.666667a32 32 0 0 1-64 0V173.253333z m-768 0V298.666667a32 32 0 1 1-64 0V96a32 32 0 0 1 32-32h202.666667a32 32 0 1 1 0 64H173.253333l180.042667 180.037333a32 32 0 0 1-45.258667 45.258667L128 173.253333z" fill="#001417" fill-opacity=".7" p-id="2592"></path></svg>