<?xml version="1.0" standalone="no"?><!DOCTYPE svg PUBLIC "-//W3C//DTD SVG 1.1//EN" "http://www.w3.org/Graphics/SVG/1.1/DTD/svg11.dtd"><svg t="1553741188319" class="icon" style="" viewBox="0 0 1024 1024" version="1.1" xmlns="http://www.w3.org/2000/svg" p-id="1977" xmlns:xlink="http://www.w3.org/1999/xlink" width="32" height="32"><defs><style type="text/css"></style></defs><path d="M120.63744 269.0304h782.76096C933.1712 269.0304 957.44 244.86912 957.44 215.04a53.88288 53.88288 0 0 0-54.04672-53.9904H120.63744C90.85952 161.0496 66.56 185.21088 66.56 215.04c0 30.01856 24.192 53.9904 54.07744 53.9904zM120.63744 565.9904h782.76096c29.7728 0 54.04672-24.16128 54.04672-53.98528a53.88288 53.88288 0 0 0-54.04672-53.99552H120.63744C90.85952 458.0096 66.56 482.17088 66.56 512c0 30.01856 24.192 53.9904 54.07744 53.9904zM120.63744 862.9504h782.76096c29.7728 0 54.04672-24.16128 54.04672-53.9904a53.88288 53.88288 0 0 0-54.04672-53.9904H120.63744C90.85952 754.9696 66.56 779.13088 66.56 808.96c0 30.01856 24.192 53.9904 54.07744 53.9904z" fill="#2c2c2c" p-id="1978"></path></svg>