<?xml version="1.0" standalone="no"?><!DOCTYPE svg PUBLIC "-//W3C//DTD SVG 1.1//EN" "http://www.w3.org/Graphics/SVG/1.1/DTD/svg11.dtd"><svg t="1536645693256" class="icon" style="" viewBox="0 0 1024 1024" version="1.1" xmlns="http://www.w3.org/2000/svg" p-id="16777" xmlns:xlink="http://www.w3.org/1999/xlink" width="16" height="16"><defs><style type="text/css"></style></defs><path d="M870.406144 332.81024l-51.196928 0 0-76.821504-25.623552 0c-42.395648 0-76.770304-34.374656-76.770304-76.821504 0-42.395648 34.373632-76.76928 76.770304-76.76928 14.166016 0 25.623552-11.45856 25.623552-25.624576 0-14.113792-11.457536-25.572352-25.623552-25.572352L179.219456 51.201024C108.491776 51.2 51.2 108.490752 51.2 179.166208l0 691.238912C51.2 926.91456 97.033216 972.8 153.59488 972.8l665.614336 0 0-76.821504 51.196928 0c56.561664 0 102.39488-45.833216 102.39488-102.393856l0-358.37952C972.801024 378.642432 926.967808 332.81024 870.406144 332.81024zM179.219456 102.396928 691.7632 102.396928c-16.196608 21.45792-26.144768 47.811584-26.144768 76.76928s9.94816 55.363584 26.144768 76.821504L179.219456 255.987712c-42.447872 0-76.821504-34.374656-76.821504-76.821504C102.397952 136.77056 136.771584 102.396928 179.219456 102.396928zM768.012288 921.603072 153.59488 921.603072c-28.280832 0-51.196928-22.969344-51.196928-51.197952L102.397952 280.987648c21.45792 16.249856 47.863808 26.196992 76.821504 26.196992l588.792832 0L768.012288 921.603072zM921.603072 793.583616c0 28.280832-22.916096 51.196928-51.196928 51.196928l-51.196928 0 0-102.393856 102.393856 0L921.603072 793.583616zM921.603072 691.188736l-102.393856 0L819.209216 563.170304l102.393856 0L921.603072 691.188736zM921.603072 511.973376l-102.393856 0L819.209216 383.954944l51.196928 0c28.280832 0 51.196928 22.96832 51.196928 51.249152L921.603072 511.973376zM255.988736 767.95904c0 56.561664 45.832192 102.44608 102.393856 102.44608l153.591808 0c56.561664 0 102.44608-45.884416 102.44608-102.44608 0-38.33344-21.354496-71.404544-52.60288-88.904704 16.97792-32.96768 26.978304-72.86272 26.978304-115.884032 0-113.07008-68.749312-204.787712-153.590784-204.787712-84.842496 0-153.591808 91.716608-153.591808 204.787712 0 43.021312 10.000384 82.916352 26.978304 115.884032C277.343232 696.554496 255.988736 729.6256 255.988736 767.95904zM435.20512 409.57952c56.561664 0 102.393856 68.749312 102.393856 153.590784 0 84.842496-45.832192 153.591808-102.393856 153.591808-56.561664 0-102.39488-68.749312-102.39488-153.591808C332.81024 478.328832 378.643456 409.57952 435.20512 409.57952zM337.601536 721.293312c26.510336 29.165568 60.520448 46.665728 97.60256 46.665728 37.082112 0 71.092224-17.50016 97.60256-46.665728 17.86368 7.968768 30.363648 25.833472 30.363648 46.665728 0 28.280832-22.91712 51.196928-51.197952 51.196928L358.382592 819.155968c-28.280832 0-51.196928-22.916096-51.196928-51.196928C307.185664 747.12576 319.685632 729.26208 337.601536 721.293312z" p-id="16778" fill="#ffffff"></path></svg>