<?xml version="1.0" standalone="no"?><!DOCTYPE svg PUBLIC "-//W3C//DTD SVG 1.1//EN" "http://www.w3.org/Graphics/SVG/1.1/DTD/svg11.dtd"><svg t="1536645572738" class="icon" style="" viewBox="0 0 1024 1024" version="1.1" xmlns="http://www.w3.org/2000/svg" p-id="14599" xmlns:xlink="http://www.w3.org/1999/xlink" width="16" height="16"><defs><style type="text/css"></style></defs><path d="M674.5 385.7H350.8c-24.6 0-44.6-20-44.6-44.6V179.3c0-24.6 20-44.6 44.6-44.6h323.7c24.6 0 44.6 20 44.6 44.6v161.8c0 24.6-20 44.6-44.6 44.6z m-319.7-48.6h315.8V183.3H354.8v153.8zM593.5 891.7H431.8c-24.6 0-44.6-20-44.6-44.6V685.3c0-24.6 20-44.6 44.6-44.6h161.8c24.6 0 44.6 20 44.6 44.6v161.8c-0.1 24.6-20.1 44.6-44.7 44.6z m-157.7-48.6h153.8V689.3H435.8v153.8zM917.4 891.7H755.6c-24.6 0-44.6-20-44.6-44.6V685.3c0-24.6 20-44.6 44.6-44.6h161.8c24.6 0 44.6 20 44.6 44.6v161.8c0 24.6-20 44.6-44.6 44.6z m-157.8-48.6h153.9V689.3H759.6v153.8zM269.7 891.7H107.9c-24.6 0-44.6-20-44.6-44.6V685.3c0-24.6 20-44.6 44.6-44.6h161.8c24.6 0 44.6 20 44.6 44.6v161.8c0 24.6-20 44.6-44.6 44.6z m-157.8-48.6h153.8V689.3H111.9v153.8z" fill="#ffffff" p-id="14600"></path><path d="M860.8 665h-48.5V507.1H213.1V665h-48.6V482.8c0-13.4 10.9-24.3 24.3-24.3h647.7c13.4 0 24.3 10.9 24.3 24.3V665z" fill="#ffffff" p-id="14601"></path><path d="M488.4 361.4H537V665h-48.6zM391.2 235.9h161.9v48.6H391.2zM593.6 235.9h40.5v48.6h-40.5z" fill="#ffffff" p-id="14602"></path></svg>