<?xml version="1.0" standalone="no"?><!DOCTYPE svg PUBLIC "-//W3C//DTD SVG 1.1//EN" "http://www.w3.org/Graphics/SVG/1.1/DTD/svg11.dtd"><svg t="1536645179428" class="icon" style="" viewBox="0 0 1024 1024" version="1.1" xmlns="http://www.w3.org/2000/svg" p-id="12009" xmlns:xlink="http://www.w3.org/1999/xlink" width="16" height="16"><defs><style type="text/css"></style></defs><path d="M940.00355555 324.12785778l-91.88238222-91.79591111-144.54556444 133.44995555v490.38108445h269.74435556v-656.19057778l-33.3164089 124.15544889z m-481.27772444 169.44924444l-82.68686222-53.26848v415.85436445h269.74890666V419.13571555l-69.57966222 64.12174223c-17.70154667 16.48071111-41.12611555 25.58862222-65.24586666 25.58862222-18.56853333 0-36.44302222-5.28611555-52.23651556-15.26897778z m-140.46435556-90.40213333l-68.1984-43.90115556L48.50915555 534.61902222v321.54396445h269.75345778V403.17496889z m-269.75345777 519.8848h924.81194667v96.30947556H48.50801778v-96.30947556z m63.9488-510.42986667l132.40092444-115.83032889 245.19111111 157.82343112c6.42048 3.99018667 13.62375111 6.07459555 20.91235556 6.07459555 9.3696 0 18.7392-3.47136 26.11427556-10.23772445l312.69774222-288.74524444 60.29880888 60.29880889 58.38848-217.86396445-217.86396444 58.38848 44.68394667 44.6828089L506.70705778 373.58933333 262.03477333 216.28472889c-14.48732445-9.11018667-33.31640889-7.89504-46.24270222 3.47136L61.61294222 354.58844445c-15.87996445 14.05155555-17.6128 38.3488-3.55783111 54.40170666 13.96849778 16.04835555 38.3488 17.60938667 54.40170667 3.64088889z" fill="#ffffff" p-id="12010"></path></svg>