<?xml version="1.0" standalone="no"?><!DOCTYPE svg PUBLIC "-//W3C//DTD SVG 1.1//EN" "http://www.w3.org/Graphics/SVG/1.1/DTD/svg11.dtd"><svg t="1537349638734" class="icon" style="" viewBox="0 0 1024 1024" version="1.1" xmlns="http://www.w3.org/2000/svg" p-id="3122" xmlns:xlink="http://www.w3.org/1999/xlink" width="16" height="16"><defs><style type="text/css"></style></defs><path d="M557 558.992l-90 0c-5.514 0-10 4.486-10 10l0 90c0 5.514 4.486 10 10 10l90 0c5.514 0 10-4.486 10-10l0-44.421c-0.001-0.037 0-0.075 0-0.112l0-45.467C567 563.479 562.514 558.992 557 558.992z" p-id="3123" fill="#ffffff"></path><path d="M892 252.005 682 252.005l0-80c0-55.14-44.859-100-100-100L442 72.005c-55.14 0-100 44.86-100 100l0 80L132 252.005c-33.084 0-60 26.916-60 60l0 160.492c0 21.356 11.759 41.457 35 59.915l0 359.583c0 33.084 26.916 60 60 60l690 0c33.084 0 60-26.916 60-60l0-359.24c23.243-18.664 35-38.968 35-60.519L952 312.005C952 278.921 925.084 252.005 892 252.005zM382 172.005c0-33.084 26.916-60 60-60l140 0c33.084 0 60 26.916 60 60l0 80L382 252.005 382 172.005zM882.192 549.465c-67.446 36.599-182.579 64.058-275.192 76.82l0 32.707c0 27.57-22.43 50-50 50l-90 0c-27.57 0-50-22.43-50-50l0-33.731c-45.325-6.402-92.755-15.652-135.843-26.566-61.62-15.609-110.295-33.354-144.674-52.74-7.216-4.069-9.767-13.218-5.697-20.434s13.218-9.767 20.434-5.697c61.425 34.638 173.069 61.689 265.78 75.137l0-25.968c0-27.57 22.43-50 50-50l90 0c27.57 0 50 22.43 50 50l0 27.009c89.003-12.566 197.669-38.602 260.884-72.904 7.282-3.952 16.388-1.251 20.339 6.03C892.173 536.408 889.474 545.515 882.192 549.465z" p-id="3124" fill="#ffffff"></path></svg>